<?xml version="1.0" standalone="no"?>
<!DOCTYPE svg PUBLIC "-//W3C//DTD SVG 20010904//EN"
 "http://www.w3.org/TR/2001/REC-SVG-20010904/DTD/svg10.dtd">
<svg version="1.0" xmlns="http://www.w3.org/2000/svg"
 width="700.000000pt" height="700.000000pt" viewBox="0 0 700.000000 700.000000"
 preserveAspectRatio="xMidYMid meet">
<metadata>
Created by potrace 1.14, written by Peter Selinger 2001-2017
</metadata>
<g transform="translate(0.000000,700.000000) scale(0.100000,-0.100000)"
fill="#000000" stroke="none">
<path d="M3920 6249 c-493 -30 -955 -297 -1235 -714 -146 -217 -232 -446 -266
-705 -9 -75 -13 -323 -5 -370 3 -14 7 -47 11 -75 26 -215 144 -505 283 -698
65 -91 74 -99 62 -56 -25 87 -31 244 -14 359 50 338 291 605 590 655 171 28
328 -7 479 -108 33 -22 62 -42 64 -44 3 -2 -20 -52 -51 -111 -49 -94 -98 -219
-113 -289 -3 -13 -7 -33 -10 -45 -3 -13 -8 -39 -10 -58 -3 -19 -8 -49 -11 -67
-10 -68 -5 -262 10 -349 9 -50 27 -122 40 -160 26 -75 76 -187 82 -181 2 2 -5
21 -15 43 -87 180 -109 439 -56 669 107 468 494 782 874 710 238 -46 432 -227
521 -486 44 -130 60 -244 55 -391 -2 -71 -7 -133 -10 -138 -3 -5 -8 -22 -10
-37 -5 -31 -18 -84 -30 -123 -6 -22 -3 -21 35 15 219 210 408 585 445 887 3
24 8 63 11 88 10 72 7 288 -6 380 -85 624 -538 1155 -1137 1334 -195 59 -368
78 -583 65z"/>
<path d="M1969 3995 c-5 -88 -2 -659 3 -668 8 -13 239 -18 273 -7 16 6 20 16
20 54 l0 46 -97 0 -98 0 0 95 0 95 69 0 c38 0 71 5 73 10 2 6 2 30 0 54 l-4
44 -51 0 c-95 0 -87 -9 -87 95 l0 94 91 -1 c71 -1 93 2 99 14 8 15 6 77 -2 85
-3 3 -68 6 -146 7 -136 3 -142 2 -143 -17z"/>
<path d="M1124 3960 c0 -27 5 -50 11 -51 5 -1 30 -2 55 -3 l45 -1 0 -285 c0
-157 3 -289 7 -295 3 -5 26 -10 50 -9 l43 0 5 295 5 295 53 -1 52 0 0 53 0 52
-163 0 -163 0 0 -50z"/>
<path d="M1537 4003 c-6 -14 -2 -668 5 -678 4 -6 26 -10 50 -10 l43 1 3 147 3
147 63 0 64 0 0 -132 c0 -73 0 -140 1 -148 1 -12 13 -15 49 -15 l47 0 5 265
c3 146 4 302 2 348 l-4 83 -51 -3 -51 -3 1 -138 c1 -155 2 -153 -77 -152 l-45
0 -3 148 -3 147 -49 0 c-27 0 -51 -3 -53 -7z"/>
<path d="M1290 3105 c-83 -26 -126 -70 -140 -143 -4 -21 -6 -251 -6 -510 l1
-472 139 -135 c77 -75 140 -134 142 -132 2 2 4 139 5 305 l2 302 217 -1 c232
-1 281 6 328 46 58 49 65 84 66 349 2 306 -7 338 -104 383 -29 14 -81 17 -325
18 -185 0 -303 -3 -325 -10z m506 -378 l0 -157 -180 2 -181 3 0 145 c-1 80 0
150 2 155 2 7 69 10 181 10 l177 0 1 -158z"/>
<path d="M2299 3105 c-70 -25 -99 -46 -126 -93 l-28 -47 0 -420 c0 -394 1
-422 19 -455 22 -40 34 -51 91 -83 39 -21 51 -22 346 -25 l306 -3 0 110 0 111
-26 0 c-14 1 -131 2 -260 3 l-235 2 1 88 c1 48 2 91 2 97 1 6 99 11 258 12
l256 3 1 128 1 128 -65 -1 c-36 -1 -149 -1 -252 -1 l-188 1 0 88 0 89 251 -1
c138 -1 254 1 259 4 4 3 7 66 6 140 l-1 135 -290 1 c-212 1 -300 -2 -326 -11z"/>
<path d="M3184 3109 c-100 -12 -165 -72 -180 -165 -5 -30 -9 -815 -5 -934 l1
-25 123 0 122 1 3 172 2 172 190 0 190 0 1 -47 c0 -27 1 -105 2 -174 l2 -126
45 -53 c25 -29 60 -69 77 -89 18 -20 50 -57 70 -83 21 -26 43 -49 48 -51 7 -3
10 198 9 622 -1 573 -3 630 -19 669 -21 52 -62 88 -118 103 -46 12 -476 18
-563 8z m437 -296 c0 -32 1 -93 2 -136 1 -44 0 -82 -3 -86 -3 -4 -87 -7 -187
-7 l-183 1 0 142 0 143 185 0 185 0 1 -57z"/>
<path d="M4163 3108 c-97 -11 -146 -43 -172 -115 -16 -43 -17 -88 -15 -453 1
-263 6 -420 13 -447 12 -45 55 -88 99 -101 15 -4 160 -7 322 -7 289 0 296 0
343 23 34 17 55 37 74 70 25 42 28 57 31 168 l4 123 -122 -1 c-137 -1 -133 2
-134 -82 l-1 -51 -187 -3 -188 -3 0 315 0 316 23 1 c26 1 318 1 330 0 4 -1 7
-25 6 -53 -3 -109 -17 -99 134 -96 l132 3 3 137 c3 175 -8 204 -98 244 -28 13
-82 16 -285 17 -137 1 -278 -1 -312 -5z"/>
<path d="M4988 3110 l-24 -5 1 -560 0 -560 137 -2 137 -2 0 167 c0 92 0 190 0
217 l1 50 178 0 177 0 3 -218 2 -218 38 -37 c20 -21 78 -81 128 -134 50 -54
93 -95 95 -93 6 5 0 1387 -6 1393 -6 6 -222 5 -233 -2 -5 -3 -8 -92 -7 -198 1
-106 -1 -199 -3 -206 -4 -10 -44 -13 -182 -11 l-178 2 0 41 c0 22 0 116 -1
208 l-1 167 -119 3 c-65 2 -129 1 -143 -2z"/>
<path d="M3830 1211 c0 -334 3 -430 13 -433 10 -3 1964 -2 2004 1 9 1 12 105
11 431 l0 430 -1014 0 -1014 0 0 -429z"/>
</g>
</svg>
